<svg width="35" height="35" viewBox="0 0 35 35" fill="none" xmlns="http://www.w3.org/2000/svg">
<path d="M22.0854 21.2199C19.1306 24.2184 15.6151 25.4353 11.5866 25.1768C8.26205 24.9641 5.49818 23.5483 3.22544 21.1126C-1.1192 16.4518 -1.00785 8.89387 3.15585 4.41203C5.69503 1.67997 8.77903 0.117095 12.5431 0.00574523C16.3111 -0.105605 19.3951 1.40558 22.0893 4.19529C22.0893 3.13946 22.1172 2.25263 22.0794 1.36978C22.0555 0.803092 22.2425 0.58238 22.8211 0.608229C23.6741 0.64402 24.5291 0.628113 25.3841 0.614194C25.8176 0.606241 25.9767 0.785196 25.9767 1.22065C25.9627 8.12039 25.9906 15.0201 25.9349 21.9179C25.919 23.8824 25.6784 25.8529 24.8791 27.6902C23.5031 30.8537 21.0832 32.854 17.8024 33.7627C13.6784 34.9041 9.61615 34.737 5.75071 32.7626C3.16182 31.4403 1.47367 29.269 0.346249 26.6264C0.191154 26.2645 0.27069 26.1134 0.674334 26.1154C1.72818 26.1233 2.78004 26.1253 3.83389 26.1154C4.15403 26.1114 4.3469 26.2546 4.50796 26.5111C6.34524 29.4559 9.08326 30.7145 12.4715 30.81C14.5334 30.8676 16.498 30.5614 18.3492 29.599C20.3754 28.5452 21.5167 26.8849 21.8448 24.6479C22.0038 23.5543 22.0615 22.4527 22.0913 21.2219L22.0854 21.2199ZM3.89752 12.6937C3.84582 15.7876 5.08658 18.0644 7.36329 19.7823C9.43918 21.3492 11.8372 21.7429 14.3624 21.4546C17.6493 21.0788 20.1765 19.49 21.469 16.4021C22.7415 13.3618 22.5546 10.2977 20.6279 7.54972C18.5938 4.64666 15.6947 3.51526 12.1871 3.84733C7.51839 4.28875 3.89752 8.22378 3.89752 12.6957V12.6937Z" fill="#D72828"/>
<path d="M31.558 19.311C33.5146 19.311 34.9999 20.7745 34.9999 22.7072C34.9999 24.62 33.4728 26.169 31.5799 26.177C29.6929 26.1849 28.1419 24.632 28.1379 22.7291C28.134 20.7904 29.6133 19.311 31.56 19.311H31.558Z" fill="#D72828"/>
</svg>
